<svg width="712" height="474" viewBox="0 0 712 474" fill="none" xmlns="http://www.w3.org/2000/svg">
<rect width="712" height="474" fill="white"/>
<g clip-path="url(#clip0_0_787)">
<path fill-rule="evenodd" clip-rule="evenodd" d="M227.483 282.338C230.42 280.34 236.356 273.222 239.48 271.598C246.416 267.914 277.409 260.734 278.408 260.359C279.97 259.734 289.906 257.424 295.717 256.05C309.338 252.678 358.202 231.074 371.074 225.516C372.698 229.825 386.257 248.932 383.945 250.868C376.26 257.237 362.513 265.229 353.64 269.85C346.418 273.55 338.918 276.682 331.208 279.216C322.523 282.089 316.524 285.148 307.839 288.083C299.278 290.955 309.526 299.947 313.9 301.82C318.836 303.881 326.459 304.942 331.458 306.753C322.585 320.491 315.149 337.225 313.65 353.647C313.275 357.581 310.276 361.265 305.339 360.079C302.777 359.454 279.408 356.332 275.534 355.458C250.04 349.651 204.239 319.242 216.048 288.021C218.798 289.27 224.984 284.024 227.483 282.338Z" fill="#E30611"/>
<path fill-rule="evenodd" clip-rule="evenodd" d="M241.73 116.805C243.604 116.617 248.541 112.871 245.979 110.935C243.354 108.937 241.48 115.431 241.73 116.805ZM142.504 131.354C143.004 131.291 142.754 128.544 142.004 128.169C139.505 127.045 139.317 131.166 139.255 132.29C139.192 133.664 139.005 137.598 142.004 136.536C143.753 135.974 142.691 132.415 142.504 131.354ZM288.594 144.092C288.531 146.527 293.467 151.21 295.279 148.4C296.779 146.028 288.719 139.221 288.594 144.092ZM114.885 89.2679C116.323 92.8895 123.321 87.9566 123.633 85.2716C124.133 79.8391 114.823 85.6462 114.885 89.2679ZM173.621 104.941C176.87 104.691 181.244 100.507 184.369 98.9464C186.493 97.8848 192.304 96.636 192.992 94.2632C193.554 92.2026 183.681 96.636 182.807 97.0107C178.932 98.8215 175.433 100.882 173.621 104.941ZM419.749 76.2175C422.34 74.1429 425.553 72.9993 428.872 72.9705C430.559 73.0329 434.058 74.032 434.183 71.1597C434.371 66.4765 419.624 72.2212 417.312 73.0954C418.125 74.1569 418.937 75.156 419.749 76.2175ZM256.726 259.422C254.789 256.238 251.353 254.427 248.791 251.679C249.728 256.113 247.603 260.109 246.104 264.168C249.603 262.544 253.165 260.983 256.726 259.422ZM589.646 327.234C590.708 323.675 591.77 320.178 593.02 316.682C594.395 312.81 595.082 312.436 591.77 309.751L583.522 325.299C585.475 326.195 587.532 326.846 589.646 327.234ZM305.464 71.4094C301.84 67.2883 284.782 67.0385 286.906 76.0926C287.656 79.2771 291.843 75.9053 294.467 75.156C297.029 74.4691 304.402 74.3442 305.464 71.4094ZM304.84 129.418C304.402 128.357 303.527 124.61 302.215 124.298C300.966 123.986 295.904 127.982 294.967 128.544C290.281 131.541 285.657 134.788 281.095 137.973C282.845 137.973 284.47 137.348 286.219 137.348C288.281 137.348 289.781 138.16 291.78 137.723C296.092 136.661 301.153 131.853 304.84 129.418ZM309.526 35.9424C309.963 34.0691 331.208 39.6889 333.77 40.7504C335.145 41.3124 342.331 45.0589 340.831 39.4391C339.956 36.2546 331.646 33.7569 328.959 32.8827C322.21 30.6348 315.025 29.0738 307.839 29.4484C306.464 29.5109 295.842 30.1353 300.278 34.3813C301.778 35.8175 307.277 35.3804 309.526 35.9424ZM314.212 293.328C318.211 295.264 322.21 296.763 326.397 298.324C328.209 299.01 331.083 300.759 333.145 300.322C334.832 299.947 335.332 297.449 336.207 295.701C339.322 289.734 343.278 284.246 347.954 279.404C345.767 277.78 334.582 284.899 331.833 285.898C329.084 286.959 326.459 288.021 323.773 289.27C321.211 290.393 316.149 291.455 314.212 293.328ZM384.445 240.44C390.257 237.817 395.693 233.197 400.442 229.013C405.878 224.267 410.752 219.272 414.751 213.09C412.376 213.215 407.065 220.896 407.003 212.528C407.003 208.22 412.876 204.036 414.688 200.04C410.127 197.48 406.003 212.778 400.816 209.094C395.818 205.535 403.691 193.234 405.253 189.362C402.316 187.427 385.57 209.281 383.133 212.091C381.634 213.84 378.009 216.15 377.197 218.211C376.697 219.397 376.635 223.268 376.885 224.392C377.385 226.703 380.009 229.513 381.134 231.698C382.639 234.444 383.754 237.386 384.445 240.44ZM623.575 319.304C618.576 312.248 623.763 309.189 627.824 303.319C631.147 298.628 633.934 293.58 636.135 288.27C641.321 275.158 645.945 263.044 648.507 249.182C645.008 250.805 642.821 256.862 641.071 260.047C638.697 264.355 636.635 268.851 634.01 273.035C629.136 280.84 624.263 289.207 618.077 295.951C615.265 299.01 612.828 302.445 609.579 305.255C608.079 306.504 605.267 307.565 604.142 309.126C603.08 310.625 604.267 311.561 603.893 313.372C603.518 315.183 601.643 317.119 600.831 318.929C599.769 321.24 598.831 323.55 597.644 325.798C596.578 327.703 595.918 329.808 595.707 331.98C595.332 334.602 596.457 334.915 594.207 337.287C598.394 339.098 602.58 340.971 606.704 342.782C608.142 343.407 609.516 344.031 610.953 344.656C611.266 344.094 611.578 343.532 611.828 342.97C612.953 341.846 614.015 339.098 614.702 337.662C617.389 331.543 620.451 325.423 623.575 319.304ZM220.672 289.707C208.8 320.865 250.478 347.091 276.097 352.898C279.658 353.71 283.095 354.771 286.657 355.645C290.531 356.582 293.905 356.395 297.779 356.769C300.841 357.082 302.278 359.454 305.152 360.079C309.963 361.14 309.651 357.519 310.026 353.647C311.463 337.225 319.899 321.365 328.771 307.627C324.71 306.191 320.711 304.568 316.712 303.007C313.275 301.633 308.026 297.824 304.34 297.637C301.59 297.512 297.466 299.822 294.842 300.821C290.449 302.51 285.964 303.948 281.408 305.13C273.347 307.128 264.412 309.938 256.101 310.125C253.727 310.188 247.104 311.312 245.416 309.813C242.105 307.003 246.666 304.63 249.415 303.631C265.849 297.637 283.282 295.077 299.716 288.895C308.214 285.71 316.587 282.214 325.085 279.091C332.458 276.406 340.144 274.034 347.204 270.724C356.577 266.353 366.012 260.921 374.135 254.489C375.76 253.178 379.134 251.305 380.259 249.432C381.259 247.808 381.134 249.432 380.884 247.433C380.759 245.997 379.009 244.062 378.259 242.75C375.545 237.752 373.165 232.578 371.136 227.265C358.202 232.822 345.892 240.377 333.083 246.309C320.211 252.304 305.777 256.488 292.03 259.859C286.157 261.296 279.471 261.733 274.097 264.543C271.848 265.729 269.536 267.103 267.099 267.852C266.349 269.226 265.662 269.475 264.974 268.664C264.768 268.427 264.505 268.245 264.211 268.136C263.916 268.027 263.598 267.994 263.287 268.039C261.762 268.388 260.275 268.89 258.851 269.538C251.79 272.285 245.042 275.72 238.293 279.216C235.106 280.902 231.857 282.526 228.795 284.399C227.184 285.362 225.695 286.515 224.359 287.833C222.859 289.519 223.234 290.893 220.672 289.707ZM487.296 104.629C490.295 104.691 493.044 103.068 496.168 103.13C501.105 103.255 504.979 107.064 507.791 110.748C513.414 117.991 511.977 126.733 509.165 134.913C507.819 138.811 505.948 142.508 503.604 145.903C501.542 148.9 497.856 151.772 496.418 155.082C494.044 160.577 498.855 158.266 501.73 157.08C505.41 155.653 508.862 153.697 511.977 151.273C525.911 140.221 536.471 124.797 540.033 107.126C541.783 98.5093 541.658 88.3937 535.596 81.3377C530.098 74.9062 520.6 72.7832 512.477 73.9696C503.729 75.2808 495.731 78.9649 488.608 83.7729C486.546 85.1467 484.609 86.7077 482.672 88.2063C480.11 90.2669 478.61 90.2669 479.235 93.5139C479.735 95.8867 480.985 98.3219 481.859 100.632C483.484 104.941 482.922 106.002 487.296 104.629ZM496.793 178.185L496.168 179.247C500.355 179.434 504.229 175.75 507.791 173.939C512.415 171.629 516.539 168.444 520.538 165.197C527.661 159.515 534.909 153.146 540.22 145.653C552.155 128.981 562.965 107.751 559.716 86.5828C556.217 63.7915 536.221 54.9872 514.976 57.9844C505.354 59.3581 496.793 63.6042 488.233 67.9751C483.921 70.1606 480.235 73.0329 476.298 75.7804C474.236 77.2165 472.362 77.4039 472.237 79.9016C472.112 81.7748 475.361 86.0209 476.298 87.7692C487.046 76.7794 498.668 67.6629 514.976 67.1009C534.347 66.4141 545.782 84.772 545.719 102.381C545.657 119.615 538.221 136.162 526.349 148.588C520.975 154.208 515.851 158.703 509.228 162.825C505.916 164.885 503.479 166.696 499.793 168.07C497.168 169.006 497.481 168.507 496.793 170.942C496.231 172.94 496.793 176.062 496.793 178.185ZM391.569 412.28C391.272 415.374 390.75 418.441 390.007 421.459C389.757 422.521 388.319 425.955 388.569 427.204C389.007 429.202 388.444 427.953 390.194 428.952C392.069 430.076 394.193 430.014 396.193 430.326C397.442 430.513 402.004 432.699 402.816 432.324C404.191 431.7 404.128 429.639 405.565 428.827C407.565 427.703 410.564 428.64 412.439 429.577C417.5 431.949 420.999 436.82 425.935 439.505C434.683 444.251 444.993 446.873 454.741 447.997C459.99 448.559 465.426 449.621 470.612 448.372C474.736 447.373 480.047 447.497 482.297 443.064C462.489 437.632 432.246 430.95 424.436 408.221C420.187 412.093 413.064 410.032 407.94 409.47C402.254 408.908 397.192 409.033 392.069 406.473C391.655 408.38 391.487 410.331 391.569 412.28ZM216.236 271.598C225.546 272.16 234.419 267.727 240.168 260.296C241.605 258.486 243.042 256.612 243.854 254.427C244.042 253.865 244.229 253.303 244.417 252.803C245.291 251.305 244.917 250.555 243.229 250.68C242.292 249.369 239.918 248.932 240.605 246.622C241.105 244.873 242.98 244.811 244.667 244.249C244.001 243.047 243.159 241.953 242.167 241.002C239.105 243.749 233.607 249.057 231.482 242.813C230.483 239.815 232.232 236.943 231.795 234.008C231.607 232.822 230.108 229.762 229.233 229.013C224.546 225.204 217.736 226.765 212.799 229.013C209.363 230.574 208.613 231.323 208.05 234.82C207.488 238.442 206.926 242.063 206.301 245.685C208.363 244.624 208.738 242.313 210.112 240.627C210.612 241.564 211.112 242.438 211.612 243.375C211.914 243.185 212.265 243.09 212.621 243.101C212.978 243.112 213.322 243.229 213.612 243.437C214.611 244.936 213.987 247.246 213.674 248.807C216.986 248.495 218.423 252.179 215.049 253.678C211.612 255.239 210.05 250.993 209.925 248.245C208.613 249.806 207.301 248.932 206.426 249.744C205.551 250.555 205.176 252.179 204.864 253.99C204.364 256.987 202.989 261.233 204.239 264.23C205.988 268.726 211.862 271.036 216.236 271.598ZM486.421 129.231C483.359 133.539 478.048 139.159 476.986 144.342C480.36 142.344 487.546 132.79 489.42 140.408C490.482 144.779 485.046 150.024 483.672 154.27C489.045 152.522 492.857 146.964 496.168 142.718C500.417 137.286 504.791 130.105 505.854 123.236C506.072 121.91 506.015 120.553 505.687 119.249C505.359 117.946 504.766 116.724 503.946 115.658C503.126 114.593 502.096 113.707 500.919 113.056C499.742 112.404 498.445 112.001 497.106 111.872C494.121 111.695 491.126 111.99 488.233 112.746C486.921 113.058 484.984 113.433 483.859 114.12C482.422 114.994 482.234 117.055 480.86 115.306L475.423 125.609C477.236 124.922 480.922 122.175 482.922 122.425C485.796 122.862 486.358 127.108 486.421 129.231ZM197.553 45.3711C189.319 45.7062 181.175 47.2202 173.371 49.867C171.497 50.4914 163.436 52.7393 165.123 56.0487C166.248 58.2342 172.247 55.1745 174.059 54.6125C181.869 52.4271 189.867 50.9909 197.865 49.6796C199.802 49.3674 206.363 49.3674 206.676 46.8697C207.113 43.8101 199.802 45.3711 197.553 45.3711ZM417.687 398.043C413.364 398.512 408.999 398.449 404.691 397.856C401.004 397.419 397.255 395.92 393.568 395.92C393.568 399.854 393.318 399.854 397.442 400.728C400.317 401.29 403.253 401.665 406.19 402.04C411.314 402.789 417.063 404.787 422.311 403.726C422.186 403.039 421.811 398.418 421.249 397.981C420.937 397.731 418.125 398.043 417.687 398.043ZM346.83 107.189C348.079 107.938 350.891 111.06 352.328 111.123C351.828 107.501 347.767 101.257 343.143 103.442C342.018 104.004 339.644 106.689 340.706 107.876C341.268 108.625 345.33 107.189 346.83 107.189ZM304.09 139.284C304.152 138.659 304.152 138.035 304.215 137.411C302.528 138.41 300.403 138.909 299.216 140.47C300.653 141.095 302.09 141.782 303.527 142.406C303.715 141.344 303.902 140.283 304.09 139.284ZM437.558 234.945C445.556 237.755 452.929 241.501 458.803 247.87C463.926 253.365 466.301 263.044 467.55 270.225C470.612 288.021 464.676 304.568 460.802 321.614C458.803 330.294 455.866 338.599 453.054 347.028C450.617 354.397 448.555 362.077 445.181 369.07C442.369 375.002 438.745 380.872 436.245 386.991C434.871 390.301 432.746 401.665 427.623 398.106C426.248 401.728 425.873 401.415 427.373 403.975C428.435 405.786 432.121 408.346 433.809 409.845C438.432 413.841 444.244 417.088 449.617 419.836C459.49 424.956 470.05 428.702 480.235 433.386C484.734 435.446 489.608 437.881 488.608 443.751C488.244 446.087 487.314 448.299 485.898 450.193C484.482 452.086 482.623 453.605 480.485 454.616C476.298 456.676 470.362 458.238 465.738 458.924C462.989 459.299 462.364 458.175 460.177 457.8C457.678 457.363 454.803 458.238 452.242 458.175C440.807 458.05 430.747 455.178 421.499 448.559C418.187 446.186 413.313 439.755 409.002 439.755C406.815 439.755 407.252 441.128 405.315 441.878C402.941 442.877 398.754 441.004 396.443 440.566C391.444 439.63 386.32 438.693 382.946 434.385C379.322 429.702 380.634 423.894 382.196 418.712C383.946 412.842 386.882 406.91 388.132 400.978C388.528 399.132 388.612 397.233 388.382 395.358C387.882 393.048 385.57 391.737 385.508 389.239C385.508 388.49 386.57 387.491 386.757 386.741C387.195 385.056 387.132 383.245 387.257 381.559C387.57 378.437 388.257 375.502 388.757 372.442C389.882 365.511 392.069 359.267 394.193 352.586C396.255 346.092 398.192 341.221 402.191 335.602C404.253 332.667 411.126 322.301 407.752 319.304C403.191 328.296 397.817 335.352 390.756 342.533C385.383 348.027 380.134 355.396 373.386 359.329C366.012 363.638 356.952 366.136 348.767 368.446C344.892 369.507 341.643 371.943 337.457 372.38C332.885 372.786 328.278 372.406 323.835 371.256C322.585 370.944 318.961 369.07 317.837 369.195C316.149 369.383 313.775 372.317 311.963 372.879C307.526 374.191 304.465 371.693 301.091 369.32C297.404 366.76 296.342 366.136 292.093 365.823C286.906 365.449 281.845 363.638 276.784 362.514C267.849 360.578 260.225 356.582 252.04 352.398C242.73 347.653 234.732 341.034 227.671 333.229C217.298 321.802 202.927 290.081 219.798 278.967C209.863 277.593 200.74 273.284 199.553 262.045C198.928 256.175 200.115 249.619 201.615 243.937C202.302 241.314 203.114 238.754 203.864 236.194C204.425 235.336 204.748 234.345 204.801 233.322C205.176 232.01 204.614 231.323 203.239 231.323C200.615 228.264 198.678 225.579 198.115 221.208C197.928 219.834 197.803 217.711 198.803 216.525C199.225 216.04 199.796 215.71 200.427 215.588C201.989 215.65 202.427 214.901 201.739 213.34C202.489 211.092 201.365 209.281 204.176 208.345C205.051 208.532 205.988 208.719 206.863 208.969C207.988 209.469 208.738 209.094 209.113 207.845C211.737 206.784 210.55 205.285 214.112 206.596C216.321 207.423 218.309 208.748 219.923 210.468C221.922 209.219 217.361 201.289 217.236 198.791C216.861 192.859 219.36 187.989 222.547 183.118C228.733 173.627 237.418 165.51 245.916 158.204C262.287 144.154 279.471 130.854 297.904 119.677C290.281 114.37 281.408 112.933 272.347 115.431C263.974 117.679 257.226 121.8 249.54 125.422C242.417 128.731 234.857 130.105 232.607 121.051C230.045 110.873 238.168 107.064 245.479 102.506C243.667 101.132 237.668 102.131 235.419 102.256C230.358 102.63 225.546 103.754 220.672 104.753C218.298 105.253 216.174 105.128 213.862 105.628C210.425 106.315 206.801 107.126 203.302 108.125C194.846 110.479 186.812 114.145 179.495 118.99C173.246 123.174 168.935 129.168 163.936 134.601C158.188 140.845 152.751 146.964 144.253 149.275C140.254 150.336 135.63 151.335 132.819 147.776C130.194 144.467 130.069 140.533 130.132 136.474C130.319 127.545 134.631 117.929 139.629 110.685C145.066 102.818 152.314 98.2595 159.187 91.8904C149.252 92.5773 139.629 97.8224 130.507 101.444C128.57 102.193 126.633 103.068 124.696 103.754C122.634 104.504 121.259 104.067 119.322 104.379C114.823 105.191 110.949 107.064 106.575 104.067C98.2644 98.3219 106.575 86.7077 112.324 83.0861C120.199 78.1153 128.501 73.8525 137.13 70.3479C132.381 65.2277 136.443 57.8595 140.817 54.2379C146.378 49.6172 153.376 46.9946 160.062 44.4969C165.311 42.5612 170.497 40.688 175.996 39.5016C181.744 38.2527 188.493 36.3795 194.304 36.5668C199.802 36.7541 204.614 35.7551 210.175 35.6302C214.799 35.5053 219.423 35.6302 224.047 35.5053C236.481 35.1931 248.916 36.0048 261.1 36.9415C251.477 8.84257 314.837 17.522 328.396 21.2061C340.706 24.5155 354.765 28.3869 365.075 36.317C369.437 39.7498 373.589 43.4405 377.51 47.3693C383.258 53.1139 386.382 60.7319 389.444 68.1625C397.13 64.4159 404.441 60.2948 412.876 58.4215C420.874 56.6731 429.06 54.2379 437.12 52.9266C443.244 51.9275 452.117 51.2407 457.24 55.5492C462.802 60.2323 465.738 67.538 469.05 73.7822C485.046 58.6088 502.917 47.4942 525.786 48.2435C548.156 48.9928 562.84 68.2249 565.527 89.143C568.526 112.184 558.216 136.224 544.344 154.083C538.096 162.075 531.66 169.818 523.224 175.75C519.038 178.685 514.664 181.932 510.103 184.242C507.769 185.401 505.37 186.423 502.917 187.302C501.835 187.721 500.729 188.076 499.605 188.363C496.418 189.113 497.043 188.114 495.856 190.923C494.919 193.171 494.981 197.105 494.606 199.603C494.107 202.475 493.857 205.348 493.169 208.157C491.982 213.028 490.732 217.773 489.233 222.581C486.374 231.728 482.584 240.558 477.923 248.932C481.859 250.68 487.421 250.805 491.67 251.367C496.382 252.048 501.039 253.07 505.604 254.427C515.164 257.112 523.662 259.36 532.785 263.356C542.22 267.477 550.593 273.721 559.716 278.654C568.089 283.213 576.524 288.895 584.272 294.327C585.922 295.481 587.414 296.845 588.709 298.386C589.836 299.658 591.092 300.809 592.458 301.82C593.27 302.445 595.645 305.754 596.519 305.879C598.144 306.129 597.894 304.88 599.206 303.132C601.893 299.51 605.705 296.763 608.391 293.078C610.574 290.007 612.91 287.048 615.39 284.212C621.148 277.781 626.1 270.673 630.136 263.044C632.261 259.048 634.573 255.239 636.885 251.492C639.197 247.746 643.321 242.813 647.944 243C647.57 241.064 646.382 240.752 648.444 239.628C649.756 238.879 652.318 240.065 653.318 240.877C656.005 242.875 656.13 246.809 655.943 249.806C655.446 257.383 654.019 264.87 651.694 272.098C649.007 280.715 645.695 288.395 642.008 296.638C639.072 303.194 635.51 311.874 628.262 314.933C633.135 321.864 630.761 327.484 627.512 334.852C625.137 340.222 622.013 345.78 617.264 349.339C611.891 353.335 606.079 349.963 600.456 347.278C597.082 345.655 586.647 341.908 588.771 336.975C586.147 336.601 584.522 334.727 582.21 334.165C579.711 333.541 580.148 334.54 577.461 334.977C575.462 335.289 572.4 333.478 570.463 332.792C567.276 331.73 564.09 330.606 560.903 329.482C551.905 326.423 543.095 323.363 534.034 320.865C517.163 316.244 500.105 313.622 483.297 309.563C479.922 308.751 476.611 307.94 473.049 307.315C472.299 307.19 468.55 306.941 468.113 306.191C467.3 304.818 469.8 297.262 469.987 295.701C471.312 285.265 470.975 274.686 468.988 264.355C468.175 260.172 464.551 254.802 464.614 250.68C464.614 247.933 467.051 244.936 468.488 242.5C471.987 236.381 475.673 229.762 478.298 223.393C482.297 213.652 484.734 202.662 486.483 192.235C487.421 186.802 488.483 180.87 488.733 175.375C488.92 171.192 488.608 166.758 489.17 162.45C486.858 162.7 483.547 163.886 481.485 162.575C478.86 160.951 478.11 156.331 478.485 153.521C469.425 155.082 469.737 146.527 470.3 139.783C453.929 139.783 474.861 115.493 477.486 110.248C478.673 107.876 478.673 110.561 478.11 106.814C477.86 105.191 476.736 103.38 476.111 101.881C474.736 98.6341 473.237 95.3872 471.674 92.2026C468.307 85.5038 464.529 79.0184 460.365 72.7832C456.658 75.4085 453.244 78.4229 450.18 81.7748C452.179 76.5297 458.303 70.0982 455.678 64.1662C453.241 58.6713 445.181 59.0459 440.369 60.045C427.373 62.7924 414.938 66.7887 402.566 71.347C406.378 73.5325 412.251 71.8465 416.063 70.1606C420.749 68.1 425.873 65.9145 430.934 64.7906C435.371 63.854 441.182 64.1662 439.932 70.0982C438.87 74.9062 434.183 79.5893 431.059 83.211C424.186 91.1411 415.563 97.3229 407.065 103.505C397.942 110.123 389.194 117.304 379.947 123.736C363.263 135.35 345.392 145.466 328.147 156.268C319.211 161.888 309.089 166.446 299.341 170.63C288.656 175.25 278.409 180.121 267.349 183.743C261.225 185.741 255.102 187.427 249.041 189.737C245.229 191.173 238.668 194.046 236.169 189.799C231.107 181.12 249.478 169.756 254.539 164.448C258.038 167.82 240.855 180.371 242.23 185.304C243.292 189.175 247.354 184.18 249.353 183.118C252.54 181.432 256.289 180.558 259.476 178.622C266.036 174.626 273.785 170.068 275.284 161.825C274.222 160.701 274.285 159.702 275.347 158.766C275.838 158.219 276.219 157.583 276.471 156.893C276.859 155.477 277.151 154.038 277.346 152.584C278.096 148.525 276.222 144.716 277.971 140.782C267.849 148.463 258.163 157.08 248.541 165.385C239.918 172.815 230.92 182.556 227.796 193.671C227.421 195.107 226.733 196.731 226.796 198.229C226.921 201.164 227.233 200.539 229.608 201.476C231.982 202.413 235.419 202.35 237.981 202.413C239.418 202.475 245.916 200.914 244.667 204.099C243.917 205.909 239.418 205.847 237.793 206.034C233.732 206.471 231.545 206.034 233.482 210.405C234.357 212.341 236.106 213.715 237.481 215.213C241.292 219.459 243.354 225.953 246.354 230.886C249.79 236.569 253.54 241.939 257.476 247.246C259.101 249.432 261.288 253.49 263.6 255.051C265.724 256.487 263.225 256.363 266.786 255.801C268.348 255.551 269.723 254.552 271.223 254.177C280.033 252.054 289.093 249.619 298.216 246.996C309.838 243.624 322.085 240.752 333.208 235.882C343.143 231.511 353.016 226.328 363.076 221.895C366.012 220.583 368.949 219.772 371.261 217.399C374.01 214.526 376.322 210.78 378.822 207.72C383.133 202.475 387.132 197.168 391.756 192.172C395.193 188.488 401.379 181.62 406.253 180.121C415.563 177.311 410.564 191.423 409.377 195.045C411.564 195.544 412.689 192.734 415.251 193.546C418.312 194.483 418.625 198.604 419 201.164C419.125 201.851 418.187 203.1 418.437 203.724C418.562 203.911 420.562 205.098 420.937 205.66C422.311 207.658 422.061 210.093 421.561 212.216C418.812 223.331 409.065 231.448 401.879 239.691C405.065 239.066 407.502 237.255 410.502 236.319C413.376 235.445 416.188 235.507 419.062 235.257C422.061 235.007 424.936 233.883 427.997 233.821C431.309 233.634 434.371 234.57 437.558 234.945Z" fill="black"/>
<path fill-rule="evenodd" clip-rule="evenodd" d="M97.8271 134.913C96.0775 136.099 95.5777 137.223 95.5152 139.846C95.5152 140.97 95.5777 145.029 97.0773 144.841C98.5144 144.716 97.8271 136.287 97.8271 134.913ZM88.7043 141.532C89.5166 132.977 92.6409 124.298 100.014 118.928C101.826 117.617 103.888 117.679 105.888 116.805C107.075 116.305 109.012 113.995 110.324 114.245C115.323 115.244 109.574 121.925 108.699 123.673C106.075 129.106 106.263 133.851 106.325 139.721C106.388 144.154 107.325 151.647 105.075 155.706C102.701 160.015 97.5147 157.205 94.5779 154.645C90.9538 151.523 88.2044 146.402 88.7043 141.532Z" fill="black"/>
<path fill-rule="evenodd" clip-rule="evenodd" d="M176.745 166.821C176.745 171.566 180.619 168.382 180.494 164.947C180.307 159.952 176.558 163.074 176.745 166.821ZM197.365 140.408C193.116 144.217 189.867 146.34 189.055 152.209C188.43 156.643 189.055 161.076 189.055 165.509C189.117 173.003 183.056 180.87 176.495 172.316C171.747 166.071 173.434 156.206 177.308 149.899C179.39 146.435 182.231 143.489 185.618 141.282C188.18 139.721 195.241 136.661 197.365 140.408Z" fill="black"/>
<path fill-rule="evenodd" clip-rule="evenodd" d="M138.067 256.05C137.567 257.237 136.442 261.982 138.754 260.858C140.879 259.922 139.504 256.8 138.067 256.05ZM125.633 241.376C125.258 239.566 125.445 228.389 128.507 229.263C130.944 229.95 131.319 235.632 132.318 237.63C136.005 245.061 144.441 249.681 147.315 257.362C150.564 265.916 140.754 266.166 135.505 262.732C129.382 258.61 125.82 248.557 125.633 241.376Z" fill="black"/>
<path fill-rule="evenodd" clip-rule="evenodd" d="M118.072 195.482C119.385 193.671 119.572 192.734 118.76 191.111C117.822 192.172 118.01 193.671 118.072 195.482ZM119.01 203.537C112.011 204.348 111.699 191.485 112.886 187.052C113.982 183.385 115.716 179.939 118.01 176.874C118.447 176.312 122.446 171.129 123.259 171.067C126.32 171.004 125.446 174.439 125.133 175.75C124.066 179.609 123.664 183.621 123.946 187.614C124.258 192.36 126.508 203.724 119.01 203.537Z" fill="black"/>
<path fill-rule="evenodd" clip-rule="evenodd" d="M436.058 92.2026C426.06 100.57 416.625 109.624 405.753 116.93C400.441 120.489 394.88 123.673 389.569 127.295C386.91 129.17 384.087 130.8 381.134 132.166C378.509 133.352 376.76 133.539 378.947 130.667C380.384 128.731 383.696 127.42 385.695 126.046C388.757 123.986 391.694 121.613 394.88 119.802C400.566 116.555 406.253 113.87 411.501 109.874C416.188 106.315 420.999 102.818 425.435 99.0713C427.372 97.5102 433.683 90.0172 436.058 92.2026Z" fill="black"/>
<path fill-rule="evenodd" clip-rule="evenodd" d="M436.245 122.425C440.744 126.234 429.497 136.786 426.935 139.159C424.248 141.657 421.249 143.905 418.312 146.153C417.25 146.964 411.626 152.209 410.189 151.772C407.377 150.961 411.064 147.526 412.064 146.652C415.188 143.78 418.375 140.97 421.436 138.035C424.186 135.35 427.185 132.915 429.809 130.167C431.996 127.857 433.808 124.11 436.245 122.425Z" fill="black"/>
<path fill-rule="evenodd" clip-rule="evenodd" d="M103.638 277.093C102.451 274.408 100.389 277.406 101.451 278.717C102.451 280.028 103.451 277.655 103.638 277.093ZM96.7646 271.723C97.3895 267.727 98.8267 265.542 102.576 268.913C105.138 271.224 110.324 277.905 109.824 281.527C109.199 286.272 103.95 284.961 101.201 282.463C98.4517 279.966 97.202 275.282 96.7646 271.723Z" fill="black"/>
<path fill-rule="evenodd" clip-rule="evenodd" d="M104.95 350.275C100.389 349.901 96.4521 346.404 94.5151 342.283C92.8905 338.786 91.3284 333.229 97.077 335.04C100.826 336.226 115.323 350.837 104.95 350.275Z" fill="black"/>
<path fill-rule="evenodd" clip-rule="evenodd" d="M160.562 327.671C157 328.483 153.501 326.173 151.314 323.488C149.939 321.864 146.815 316.12 148.377 313.747C150.627 310.437 153.938 317.056 155.126 318.367C156.938 320.49 162.874 324.424 160.562 327.671Z" fill="black"/>
<path fill-rule="evenodd" clip-rule="evenodd" d="M163.811 237.942C161.062 236.631 158.438 235.07 157.313 232.01C156.626 230.075 156.001 224.143 159.187 224.205C162.812 224.205 171.185 237.318 163.811 237.942Z" fill="black"/>
<path fill-rule="evenodd" clip-rule="evenodd" d="M144.316 176.749C148.065 176.687 148.939 178.747 149.439 181.682C149.814 183.68 151.501 190.486 149.752 191.86C147.252 193.858 143.191 189.3 142.379 187.489C140.629 183.805 142.941 180.183 144.316 176.749Z" fill="black"/>
<path fill-rule="evenodd" clip-rule="evenodd" d="M208.238 380.372C210.05 381.184 214.174 382.995 212.612 385.867C210.988 388.864 206.239 385.93 204.489 384.681C203.739 384.119 199.053 380.56 199.24 379.373C199.678 376.813 206.114 380.123 208.238 380.372Z" fill="black"/>
<path fill-rule="evenodd" clip-rule="evenodd" d="M88.8292 195.17C90.0789 198.292 91.4536 208.907 84.9551 203.162C82.9556 201.414 82.6432 199.228 83.3305 196.793C84.3303 193.296 85.7674 193.983 88.8292 195.17Z" fill="black"/>
<path fill-rule="evenodd" clip-rule="evenodd" d="M434.496 155.519C433.059 152.584 436.62 150.648 438.495 148.775C439.745 147.526 444.993 140.782 446.68 141.157C450.242 141.906 436.245 154.208 434.496 155.519Z" fill="black"/>
<path fill-rule="evenodd" clip-rule="evenodd" d="M144.254 369.07C147.628 368.508 148.44 372.317 150.627 373.941C151.564 374.628 154.814 375.252 154.126 376.751C152.439 380.747 144.066 371.755 144.254 369.07Z" fill="black"/>
<path fill-rule="evenodd" clip-rule="evenodd" d="M172.997 279.903C175.309 278.904 182.119 284.212 180.12 286.46C177.246 289.831 173.122 281.714 172.997 279.903Z" fill="black"/>
<path fill-rule="evenodd" clip-rule="evenodd" d="M222.297 355.895C220.61 356.082 213.424 353.835 216.049 350.775C217.923 348.652 222.922 354.022 222.297 355.895Z" fill="black"/>
<path fill-rule="evenodd" clip-rule="evenodd" d="M136.13 341.409C134.443 342.095 128.32 340.722 130.257 338.037C132.069 335.539 136.13 339.286 136.13 341.409Z" fill="black"/>
<path fill-rule="evenodd" clip-rule="evenodd" d="M186.118 352.835C186.563 352.773 187.017 352.802 187.45 352.92C187.884 353.039 188.289 353.245 188.64 353.526C188.991 353.806 189.281 354.156 189.492 354.553C189.703 354.949 189.831 355.385 189.867 355.833C187.368 356.207 186.618 355.583 186.118 352.835Z" fill="black"/>
<path fill-rule="evenodd" clip-rule="evenodd" d="M259.913 30.0104L259.726 33.7569L259.913 30.0104Z" fill="black"/>
<path fill-rule="evenodd" clip-rule="evenodd" d="M647.132 242.313C647.507 243.687 646.945 243.937 645.383 243C645.945 242.75 646.57 242.501 647.132 242.313Z" fill="black"/>
<path fill-rule="evenodd" clip-rule="evenodd" d="M492.919 250.743C491.857 251.555 490.857 251.679 489.795 250.68C490.795 250.68 491.857 250.743 492.919 250.743Z" fill="black"/>
<path fill-rule="evenodd" clip-rule="evenodd" d="M469.487 144.279C469.487 145.341 469.425 146.34 469.425 147.401C469.487 146.34 469.487 145.278 469.487 144.279Z" fill="black"/>
<path fill-rule="evenodd" clip-rule="evenodd" d="M523.537 47.9312H520.413C521.42 47.5565 522.529 47.5565 523.537 47.9312Z" fill="black"/>
<path fill-rule="evenodd" clip-rule="evenodd" d="M217.986 35.193C216.923 35.2554 215.924 35.3179 214.861 35.3803C215.861 35.3179 216.923 35.2554 217.986 35.193Z" fill="black"/>
<path fill-rule="evenodd" clip-rule="evenodd" d="M243.604 35.3803C242.792 35.3179 241.917 35.2554 241.105 35.193C241.917 35.2554 242.73 35.3179 243.604 35.3803Z" fill="black"/>
<path fill-rule="evenodd" clip-rule="evenodd" d="M257.351 36.3794C256.965 36.5794 256.536 36.6838 256.101 36.6838C255.666 36.6838 255.238 36.5794 254.852 36.3794H257.351Z" fill="black"/>
<path fill-rule="evenodd" clip-rule="evenodd" d="M182.994 38.1278C181.932 38.3151 180.932 38.5649 179.87 38.7522C180.869 38.5025 181.932 38.3151 182.994 38.1278Z" fill="black"/>
<path fill-rule="evenodd" clip-rule="evenodd" d="M470.112 292.267C470.112 292.891 470.05 293.516 470.05 294.14C470.112 293.516 470.112 292.891 470.112 292.267Z" fill="black"/>
<path fill-rule="evenodd" clip-rule="evenodd" d="M125.82 241.689C125.81 242.106 125.831 242.523 125.883 242.938C125.832 242.523 125.812 242.106 125.82 241.689Z" fill="black"/>
<path fill-rule="evenodd" clip-rule="evenodd" d="M651.006 239.441H647.882C648.328 239.092 648.878 238.902 649.444 238.902C650.01 238.902 650.56 239.092 651.006 239.441Z" fill="black"/>
<path fill-rule="evenodd" clip-rule="evenodd" d="M437.308 235.007C436.496 234.883 435.621 234.758 434.809 234.57C435.621 234.758 436.433 234.883 437.308 235.007Z" fill="black"/>
<path fill-rule="evenodd" clip-rule="evenodd" d="M208.613 380.31C207.551 380.123 206.551 379.873 205.489 379.686L208.613 380.31Z" fill="black"/>
<path fill-rule="evenodd" clip-rule="evenodd" d="M418.875 201.101C418.875 200.477 418.812 199.853 418.812 199.228C418.875 199.853 418.875 200.477 418.875 201.101Z" fill="black"/>
<path fill-rule="evenodd" clip-rule="evenodd" d="M221.11 35.3804C220.485 35.3179 219.86 35.2555 219.235 35.1306C219.86 35.2555 220.485 35.3179 221.11 35.3804Z" fill="black"/>
<path fill-rule="evenodd" clip-rule="evenodd" d="M323.585 19.9572L321.71 19.3953L323.585 19.9572Z" fill="black"/>
<path fill-rule="evenodd" clip-rule="evenodd" d="M397.942 441.128C398.38 441.128 398.755 441.191 399.192 441.191C398.755 441.191 398.317 441.128 397.942 441.128Z" fill="black"/>
<path fill-rule="evenodd" clip-rule="evenodd" d="M111.136 105.815C111.761 105.815 112.386 105.877 113.011 105.877C112.386 105.877 111.761 105.815 111.136 105.815Z" fill="black"/>
<path fill-rule="evenodd" clip-rule="evenodd" d="M530.41 48.4932C529.348 48.4307 528.348 48.3683 527.286 48.2434C528.286 48.3683 529.348 48.4307 530.41 48.4932Z" fill="black"/>
<path fill-rule="evenodd" clip-rule="evenodd" d="M496.293 174.251C496.293 175.313 496.356 176.312 496.356 177.373C496.356 176.312 496.356 175.25 496.293 174.251Z" fill="black"/>
<path fill-rule="evenodd" clip-rule="evenodd" d="M419.812 397.794C419 397.794 418.125 397.794 417.312 397.731C418.125 397.731 419 397.794 419.812 397.794Z" fill="black"/>
<path fill-rule="evenodd" clip-rule="evenodd" d="M508.541 66.976C509.79 66.8512 511.04 66.7263 512.29 66.5389C511.102 67.6005 509.79 66.9136 508.541 66.976Z" fill="black"/>
<path fill-rule="evenodd" clip-rule="evenodd" d="M412.939 398.106C412.314 398.106 411.689 398.043 411.064 398.043C411.689 398.043 412.314 398.106 412.939 398.106Z" fill="black"/>
<path fill-rule="evenodd" clip-rule="evenodd" d="M391.319 409.033C391.319 410.095 391.381 411.094 391.444 412.155C391.381 411.094 391.381 410.032 391.319 409.033Z" fill="black"/>
<path fill-rule="evenodd" clip-rule="evenodd" d="M486.671 105.315C487.483 105.253 488.358 105.191 489.17 105.066C488.42 105.628 487.483 105.315 486.671 105.315Z" fill="black"/>
<path fill-rule="evenodd" clip-rule="evenodd" d="M213.612 271.411C214.424 271.536 215.299 271.723 216.111 271.848C215.236 271.723 214.424 271.536 213.612 271.411Z" fill="black"/>
<path fill-rule="evenodd" clip-rule="evenodd" d="M343.58 107.126C344.642 106.252 345.642 106.314 346.704 107.126H343.58Z" fill="black"/>
<path fill-rule="evenodd" clip-rule="evenodd" d="M304.465 138.659C304.465 138.222 304.527 137.848 304.527 137.411C304.536 137.828 304.515 138.245 304.465 138.659Z" fill="black"/>
<path fill-rule="evenodd" clip-rule="evenodd" d="M210.675 257.299C212.05 257.736 214.799 259.172 216.424 258.985C217.673 258.86 218.736 257.299 219.985 257.299C223.297 257.299 222.672 261.171 221.11 263.169C216.736 268.726 206.988 262.732 210.675 257.299Z" fill="black"/>
<path fill-rule="evenodd" clip-rule="evenodd" d="M224.234 237.318C228.733 238.504 226.484 248.433 222.672 249.119C218.173 249.931 217.423 241.814 218.298 238.879C220.61 240.253 219.173 245.123 222.11 243.812C223.922 242.938 223.672 238.941 224.234 237.318Z" fill="black"/>
</g>
<defs>
<clipPath id="clip0_0_787">
<rect width="573" height="442" fill="white" transform="translate(83 17)"/>
</clipPath>
</defs>
</svg>
