<svg width="712" height="474" viewBox="0 0 712 474" fill="none" xmlns="http://www.w3.org/2000/svg">
<rect width="712" height="474" fill="white"/>
<g clip-path="url(#clip0_0_743)">
<path fill-rule="evenodd" clip-rule="evenodd" d="M315.125 216.394C309.24 220.674 310.145 229.104 311.956 235.2C314.543 244.213 319.782 252.514 325.667 259.712C336.209 272.487 354.06 286.754 370.487 275.6C385.169 265.613 394.417 245.51 397.586 228.585C398.556 223.332 399.914 215.551 395.258 211.595C388.402 205.759 376.308 206.861 368.03 207.574C362.597 208.093 357.358 209.714 351.925 208.936C339.508 207.185 325.538 208.806 315.125 216.394Z" fill="#E30611"/>
<path fill-rule="evenodd" clip-rule="evenodd" d="M568.652 283.122C556.752 298.297 536.444 300.696 518.464 300.566C507.63 300.601 496.82 299.558 486.191 297.454C480.472 296.255 474.834 294.696 469.311 292.785C465.689 291.553 460.256 290.904 458.704 287.013C454.63 276.702 457.605 263.733 459.286 253.227C460.127 247.91 460.774 242.527 461.615 237.21C462.132 233.773 462.391 230.012 463.814 226.834C465.495 223.073 467.629 223.851 471.122 224.889C475.973 226.315 481.017 226.899 485.997 227.677C498.221 229.558 508.892 233.319 520.016 238.701C531.011 244.019 541.683 249.207 551.449 256.599C556.339 260.239 560.789 264.44 564.707 269.115C567.811 272.617 572.403 278.324 568.652 283.122ZM516.589 350.435C516.524 352.056 497.833 347.127 495.375 346.609C479.271 342.977 462.779 338.827 447.58 332.277C433.352 326.181 420.805 319.178 409.616 308.283C404.456 303.251 399.638 297.878 395.193 292.201C392.93 289.348 389.89 289.672 387.367 287.273C385.104 285.133 383.358 283.382 384.069 280.139C389.696 281.631 400.109 290.969 405.994 286.235C409.357 283.511 404.7 280.723 402.566 279.167C398.613 276.165 395.05 272.679 391.959 268.791C397.381 269.855 402.57 271.875 407.287 274.757C409.422 276.054 416.665 280.658 418.347 276.248C419.382 273.525 414.466 270.153 412.914 268.661C409.163 264.965 405.089 260.685 403.084 255.756C407.999 254.589 412.655 258.415 416.083 261.528C419.834 264.965 424.426 268.596 427.531 272.617C429.148 274.692 429.471 277.091 430.765 279.296C432.187 281.825 434.451 283.965 436.65 285.781C440.854 289.348 445.705 291.942 450.749 294.146C462.346 299.026 474.42 302.677 486.773 305.041C492.699 306.208 498.715 306.859 504.753 306.986C509.474 307.116 511.609 308.543 513.419 312.952C518.205 324.949 517.3 337.984 516.589 350.435ZM376.049 260.231C373.333 262.825 369.776 264.381 366.865 266.91C364.287 269.189 361.542 271.27 358.652 273.136C355.677 275.016 353.413 273.719 350.697 271.968C347.528 269.958 343.906 269.18 340.607 267.364C329.289 261.204 315.513 246.094 317.583 232.217C318.488 226.315 321.528 220.544 327.025 217.885C332.005 215.486 339.314 214.124 344.617 216.134C347.657 217.302 349.791 219.766 351.731 222.295C353.995 225.213 354.836 224.759 357.164 221.971C361.239 216.977 368.03 212.632 374.756 212.697C378.079 212.751 381.357 213.479 384.392 214.837C384.78 215.032 385.039 215.615 385.427 215.81C385.945 216.069 386.721 215.551 387.109 215.745C388.014 216.329 388.855 218.015 389.372 218.923C391.377 222.489 395.064 229.428 391.377 232.411C391.377 232.411 391.571 236.432 391.507 236.886C391.18 239.197 390.458 241.435 389.372 243.5C386.074 250.179 381.353 255.302 376.049 260.231ZM381.482 316.195C378.895 316.973 376.114 308.867 378.572 307.57C380.965 306.338 383.81 315.481 381.482 316.195ZM340.737 306.468C339.831 309.515 339.443 313.017 337.244 315.546C335.239 313.147 335.045 308.737 336.985 306.273C338.15 304.846 341.707 303.095 340.737 306.468ZM423.78 252.514C423.78 252.579 426.884 254.07 425.397 255.756C423.262 258.026 423.521 253.616 423.78 252.514ZM436.715 227.418C436.65 230.531 430.118 229.752 430.182 226.64C430.182 222.814 436.779 224.111 436.715 227.418ZM428.889 201.414C429.536 198.56 440.983 194.605 440.66 199.598C440.466 202.062 427.466 207.445 428.889 201.414ZM311.697 298.037C310.404 299.594 308.593 300.177 307.041 301.345C305.424 302.577 304.26 304.198 302.902 305.689C299.021 309.71 294.364 313.017 290.225 316.649C282.594 323.393 275.221 330.656 266.748 336.427C251.549 346.673 233.958 352.25 216.495 357.179C215.073 357.568 210.869 359.254 209.446 358.022C207.894 356.725 208.67 352.056 208.734 350.305C208.993 343.107 209.834 335.844 209.769 328.646C209.705 325.727 208.864 321.512 210.416 318.789C212.098 315.806 216.884 314.898 219.859 313.731C228.848 310.294 237.515 304.457 245.47 299.075C255.236 292.46 265.131 285.716 275.156 279.556C284.987 273.525 295.852 269.439 306.847 266.002C307.364 267.105 302.126 270.542 301.543 270.996C298.698 273.33 295.529 275.73 293.394 278.777C291.907 280.917 290.355 285.846 294.494 285.976C296.499 286.04 299.474 284.095 301.349 283.447C304.385 282.431 307.501 281.672 310.663 281.177C307.946 284.16 298.698 289.607 300.379 294.6C301.996 299.464 311.439 293.822 314.673 293.822C314.09 295.573 312.797 296.74 311.697 298.037ZM200.327 311.591C194.312 313.731 188.103 314.898 181.894 316.324C175.944 317.621 170.447 318.594 164.367 317.881C155.959 316.843 146.646 313.341 145.611 303.744C144.318 292.396 152.338 282.02 159.193 273.849C167.559 264.001 176.899 255.028 187.068 247.067C197.243 239.073 208.133 232.039 219.6 226.056C228.331 221.517 238.162 218.793 247.41 215.356C249.156 214.708 254.007 212.438 255.689 214.319C257.047 215.81 255.236 218.404 254.589 219.766C253.425 222.554 253.231 225.278 252.972 228.261C251.614 241.49 249.997 254.719 249.221 267.948C249.027 271.644 248.639 275.535 248.833 279.231C248.962 281.307 249.997 283.9 249.286 285.911C247.928 289.737 241.654 292.331 238.356 294.017C232.406 297.065 226.197 299.399 220.182 302.317C213.65 305.689 207.247 309.191 200.327 311.591ZM284.016 225.732C285.698 225.472 288.156 225.083 289.643 226.121C291.583 227.548 291.066 229.493 289.255 230.466C287.832 231.244 284.534 231.503 283.176 230.79C280.847 229.493 281.235 226.056 284.016 225.732ZM293.2 256.34C291.842 258.545 286.992 260.036 287.38 255.886C287.768 252.255 295.658 252.19 293.2 256.34ZM291.389 193.308C293.524 194.151 297.469 194.864 298.116 197.653C298.698 200.247 296.24 200.052 294.494 199.339C293.006 198.755 286.603 193.308 291.389 193.308ZM628.606 291.877C627.377 286.948 628.283 281.566 627.636 276.508C626.979 271.734 625.764 267.054 624.014 262.565C620.198 252.384 615.736 243.241 609.527 234.357C597.756 217.561 584.174 202.776 567.682 190.519C551.416 178.347 533.462 168.625 514.39 161.662C494.211 154.334 473.838 151.805 452.56 150.378C446.222 149.989 439.819 149.47 433.481 148.627C428.824 148.044 423.068 147.331 418.476 148.757C415.631 149.665 414.014 152.194 417.118 153.815C419.317 154.983 422.227 155.112 424.685 155.437C421.71 164.839 416.924 174.307 409.292 180.792C401.855 187.147 391.895 189.287 382.452 190.908C377.343 191.751 371.651 192.465 366.477 192.076C363.179 191.816 360.657 190.325 359.298 193.697C358.393 196.031 357.94 198.625 356.711 195.059C355.289 190.844 354.577 190.908 350.115 189.676C340.995 187.212 330.583 185.007 322.692 179.755C314.479 174.307 311.568 165.423 306.976 157.187C305.812 155.177 302.384 151.027 304.195 148.692C305.812 146.552 310.986 146.747 313.379 146.552C315.901 146.293 318.424 146.293 320.946 146.228C322.434 146.163 325.344 146.747 324.762 144.607C323.856 141.3 314.349 141.754 312.021 141.689C307.616 141.536 303.206 141.71 298.827 142.208C277.003 144.712 255.417 148.984 234.281 154.983C193.6 166.461 154.149 187.666 124.463 218.209C95.9409 247.521 86.951 296.286 104.478 333.704C113.597 353.158 133.323 361.134 152.532 367.554C162.621 370.927 173.357 373.65 184.093 373.002C189.267 372.677 194.118 371.316 199.163 370.278C201.361 369.824 203.819 369.111 206.083 369.305C207.764 369.435 209.446 370.991 210.998 370.148C212.162 369.565 212.615 367.879 214.038 367.165C215.719 366.322 217.724 365.998 219.535 365.544C224.515 364.312 229.366 362.367 234.281 360.745C239.276 358.993 244.177 356.98 248.962 354.715C251.42 353.612 257.047 349.138 258.664 352.38C259.375 353.871 259.052 356.725 259.246 358.346C259.569 361.07 259.893 363.793 260.345 366.582C261.251 372.613 262.286 378.579 263.385 384.545C265.325 395.309 267.848 405.62 272.052 415.801C275.415 423.907 278.325 433.051 284.534 439.536C285.816 440.928 287.442 441.956 289.249 442.514C291.055 443.072 292.976 443.141 294.817 442.713C299.215 441.676 301.414 437.655 304.13 434.413C310.016 427.215 319.782 421.767 328.836 419.757C339.896 417.358 350.632 420.859 361.174 423.907C372.298 427.085 383.681 430.133 394.611 433.959C404.83 437.525 415.825 442.778 426.884 442.324C436.521 441.935 445.511 434.089 452.495 428.058C459.48 422.027 468.212 413.207 478.236 413.921C483.216 414.245 487.743 416.709 492.594 417.682C497.897 418.784 503.589 418.914 509.022 419.303C515.748 419.822 530.817 418.071 533.275 409.9C533.663 408.668 533.663 406.204 532.046 405.75C530.558 405.296 529.847 407.047 528.489 406.917C525.708 406.788 523.509 401.859 521.957 399.914C515.748 392.262 507.146 386.49 500.161 379.551C492.271 371.705 485.544 362.237 479.594 352.834C482.311 352.121 485.156 353.288 487.808 353.871C490.977 354.52 494.082 355.363 497.186 356.206C500.614 357.179 504.106 357.827 507.599 358.541C510.186 359.059 513.678 359.254 516.007 360.551C518.076 361.718 519.176 362.95 521.763 363.274C524.35 363.599 527.001 363.339 529.588 363.339C536.638 363.274 543.623 363.145 550.608 362.431C575.314 359.773 601.572 349.332 616.447 328.516C620.559 322.863 623.727 316.577 625.825 309.905C627.248 304.652 630.029 297.324 628.606 291.877Z" fill="black"/>
<path fill-rule="evenodd" clip-rule="evenodd" d="M396.616 52.0039C403.148 52.0687 409.228 54.0142 415.243 56.219C420.546 58.1644 426.237 59.9153 430.571 63.8062C438.332 70.745 440.337 82.2231 441.63 92.08C443.182 104.336 437.944 114.647 433.546 125.736C429.406 136.112 421.775 144.542 412.785 150.897C408.064 154.269 402.825 156.28 397.328 158.03C391.765 159.846 386.397 162.246 380.447 162.246C371.393 162.246 359.816 157.901 356 149.017C354.254 144.931 355.935 144.218 359.492 146.423C364.602 149.6 369.452 153.102 375.403 154.529C386.915 157.317 400.755 153.037 410.845 147.395C420.934 141.754 427.725 133.323 432.252 122.753C436.844 112.118 438.59 101.613 436.844 90.1994C435.357 80.4722 432.381 71.588 423.65 66.3353C404.83 54.922 379.412 55.8948 362.662 70.6801C360.333 72.6904 358.07 74.7007 355.741 76.6461C354.254 77.8782 352.443 79.3698 352.702 81.5097C352.896 83.3255 356.776 90.3291 352.12 88.1891C348.304 86.4382 346.299 83.0012 341.707 82.6122C336.856 82.1582 331.035 85.9194 329.548 90.6533C328.125 95.1927 330.647 101.353 334.528 103.947C336.921 105.568 339.573 105.309 342.289 105.244C343.647 105.244 347.398 104.79 348.304 106.217C349.921 108.746 344.294 111.405 342.483 111.988C338.085 113.35 332.911 111.729 330.324 107.838C327.667 103.829 326.065 99.2114 325.667 94.4145C325.267 89.8321 326.455 85.2515 329.03 81.4449C331.876 77.4243 337.697 72.9498 342.936 74.3765C345.199 74.9601 347.01 77.3595 349.274 77.7486C350.697 78.0079 350.115 78.2025 351.279 77.1649C351.99 76.5164 352.702 75.2843 353.413 74.5061C357.358 69.9668 361.239 65.168 366.025 61.5365C374.497 54.922 385.945 51.8742 396.616 52.0039ZM372.816 141.559C373.85 139.16 375.726 143.44 376.243 144.153C377.343 145.58 379.93 146.682 379.801 148.757C379.606 152.194 374.95 151.546 373.398 149.795C371.587 147.72 371.781 143.958 372.816 141.559ZM405.994 125.282C408.516 129.238 405.412 133.453 403.472 136.955C401.596 140.262 399.785 144.088 397.586 147.201C393.9 152.389 385.88 146.747 385.621 141.429C385.427 137.344 388.338 139.095 390.213 140.651C392.153 142.208 393.059 142.597 395.064 140.911C399.074 137.474 400.885 131.637 403.666 127.292C404.183 126.385 405.218 125.866 405.994 125.282ZM413.238 126.579C413.884 128.46 412.526 133.518 416.342 132.999C418.412 132.74 418.864 129.692 419.964 128.395C423.65 123.985 422.551 132.351 421.581 134.426C419.446 139.03 413.496 142.208 410.521 136.371C409.513 134.084 409.33 131.516 410.004 129.108C410.263 127.811 412.009 123.077 413.238 126.579ZM379.412 117.565C379.089 119.77 377.019 124.245 379.542 125.801C381.805 127.228 385.686 124.18 387.432 122.883C389.243 121.586 393.318 117.76 393.447 122.494C393.512 124.893 391.119 127.746 389.437 129.173C385.815 132.091 378.184 134.75 375.532 129.238C374.044 126.19 374.885 121.91 375.855 118.862C376.502 116.333 380.189 112.183 379.412 117.565ZM427.272 105.374C428.76 107.125 432.252 110.951 430.377 113.415C428.113 116.268 424.491 111.016 423.068 109.524C421.775 108.227 419.058 104.401 420.223 102.456C422.098 99.1484 425.979 103.817 427.272 105.374ZM403.924 97.9163C408.775 101.094 402.372 103.364 399.656 103.623C396.293 103.947 392.024 104.207 388.984 102.521C384.651 100.186 386.074 96.6842 390.278 95.8412C394.546 94.9981 400.173 95.4521 403.924 97.9163ZM340.801 87.8C344.358 88.5133 348.433 89.4212 349.662 93.3121C350.891 97.3327 349.144 98.6945 345.458 97.7866C342.095 96.9436 337.05 96.1005 335.11 92.7933C332.846 88.8376 337.503 87.1515 340.801 87.8Z" fill="black"/>
<path fill-rule="evenodd" clip-rule="evenodd" d="M144.383 174.502C143.154 178.393 137.139 180.987 134.099 183.321C123.446 191.476 113.275 200.246 103.637 209.585C98.6573 214.448 94.9061 220.414 90.6375 225.797C89.6027 227.094 87.7271 230.077 85.6575 229.817C83.3939 229.493 82.9412 225.602 83.0058 223.916C83.2645 218.08 88.5679 212.503 92.3191 208.482C96.5876 204.008 101.115 199.598 105.772 195.513C110.881 190.973 116.443 187.147 122.07 183.321C127.632 179.625 132.935 175.28 138.691 171.908C141.343 170.287 145.806 169.703 144.383 174.502ZM514.066 137.668C518.464 137.798 522.797 139.289 526.937 140.586C536.121 143.569 544.787 147.655 553.389 151.935C568.544 159.495 582.909 168.554 596.269 178.976C599.042 181.05 601.936 182.955 604.935 184.683C606.875 185.85 609.656 187.212 610.368 189.547C612.243 195.448 602.671 189.547 601.313 188.704L599.373 187.536C571.045 169.962 542.782 152.843 510.768 142.791C510.397 142.712 510.053 142.542 509.765 142.295C509.477 142.048 509.256 141.733 509.121 141.378C508.986 141.024 508.941 140.641 508.992 140.265C509.042 139.888 509.186 139.531 509.41 139.225C510.574 137.474 512.449 137.603 514.066 137.668ZM143.089 149.924C142.895 151.74 140.89 152.129 139.467 152.713C134.358 154.853 129.184 156.669 124.075 158.873C114.632 162.894 106.03 168.795 96.1349 171.843C93.8713 172.556 93.5479 170.287 94.13 168.73C94.7767 166.979 96.7817 165.812 98.2692 164.775C102.473 161.921 107.259 159.846 111.916 157.836C116.508 155.826 121.294 154.334 126.015 152.648C130.413 151.092 135.522 148.238 140.243 147.979H140.437C142.054 147.979 143.283 147.849 143.089 149.924ZM522.151 122.753C517.623 121.456 521.892 118.603 524.608 118.797C527.583 118.992 530.494 120.419 533.275 121.262C541.79 123.692 550.078 126.859 558.045 130.729C559.274 131.313 564.578 134.166 561.021 135.463C558.563 136.371 552.871 132.545 550.802 131.702C541.618 127.811 531.723 125.477 522.151 122.753Z" fill="black"/>
<path fill-rule="evenodd" clip-rule="evenodd" d="M342.677 132.026C343.259 130.34 350.179 112.248 347.463 111.729C344.552 111.145 340.737 121.651 339.896 123.531C336.791 130.535 334.981 138.057 333.558 145.58C332.588 150.832 331.682 156.15 332.005 161.532C332.264 165.618 333.946 166.266 336.727 168.795C336.719 156.297 338.728 143.881 342.677 132.026Z" fill="black"/>
</g>
<defs>
<clipPath id="clip0_0_743">
<rect width="546" height="391" fill="white" transform="translate(83 52)"/>
</clipPath>
</defs>
</svg>
